<svg width="32" height="32" viewBox="0 0 24 24" fill="none" xmlns="http://www.w3.org/2000/svg">
  <path d="M12 3L20 9L12 12L4 9L12 3Z" fill="#1e293b" stroke="#1e293b" stroke-width="2" stroke-linejoin="round"/>
  <path d="M12 12V21" stroke="#1e293b" stroke-width="2" stroke-linecap="round"/>
  <path d="M8 15C8 16.6569 6.65685 18 5 18C3.34315 18 2 16.6569 2 15C2 13.3431 3.34315 12 5 12C6.65685 12 8 13.3431 8 15Z" stroke="#1e293b" stroke-width="2"/>
  <path d="M22 15C22 16.6569 20.6569 18 19 18C17.3431 18 16 16.6569 16 15C16 13.3431 17.3431 12 19 12C20.6569 12 22 13.3431 22 15Z" stroke="#1e293b" stroke-width="2"/>
</svg>